<svg width="146" height="43" viewBox="0 0 146 43" fill="none" xmlns="http://www.w3.org/2000/svg">
<g filter="url(#filter0_d_18_57)">
<path fill-rule="evenodd" clip-rule="evenodd" d="M24.3738 7.75838C27.9354 7.75838 30.2118 11.1889 30.2118 11.1889C30.2118 11.1889 26.7398 13.0667 26.7398 17.1417C26.7398 21.9792 31.1036 23.3875 31.1036 23.3875C31.1036 23.3875 27.6596 31.5209 23.79 31.5209C21.6144 31.5209 21.4688 30.275 18.5778 30.275C16.0662 30.275 15.2206 31.5195 13.3082 31.5195C9.65697 31.5195 4.94177 23.5889 4.94177 17.1375C4.94177 10.4389 9.71577 7.7556 12.709 7.7556C15.3368 7.7556 16.433 9.29727 18.547 9.29727C20.3292 9.29727 21.732 7.7556 24.3738 7.7556V7.75838ZM23.7606 0.925049C24.2828 4.21116 21.291 8.27227 17.7126 8.14033C17.1876 3.96394 21.0446 1.15005 23.7578 0.929216L23.7606 0.925049Z" fill="white"/>
</g>
<g filter="url(#filter1_d_18_57)">
<mask id="mask0_18_57" style="mask-type:luminance" maskUnits="userSpaceOnUse" x="41" y="1" width="101" height="37">
<path d="M41.7296 1.12646H141.942V37.5098H41.7296V1.12785V1.12646Z" fill="white"/>
</mask>
<g mask="url(#mask0_18_57)">
<path fill-rule="evenodd" clip-rule="evenodd" d="M50.9612 25.6029L49.5472 21.2196C49.3974 20.7752 49.116 19.7196 48.7044 18.0599H48.654C48.486 18.7738 48.2228 19.8279 47.8588 21.2224L46.4686 25.6071H50.9626L50.9612 25.6029ZM55.8514 32.6029H52.9954L51.433 27.6724H45.9996L44.5086 32.6029H41.7296L47.1154 15.8154H50.4404L55.8514 32.6043V32.6029Z" fill="white"/>
</g>
<mask id="mask1_18_57" style="mask-type:luminance" maskUnits="userSpaceOnUse" x="41" y="1" width="101" height="37">
<path d="M41.7296 1.12646H141.942V37.5098H41.7296" fill="white"/>
</mask>
<g mask="url(#mask1_18_57)">
<path fill-rule="evenodd" clip-rule="evenodd" d="M66.9436 26.5001C66.9436 25.3223 66.6804 24.3501 66.1512 23.5862C65.5716 22.7904 64.7932 22.3917 63.8174 22.3917C63.1566 22.3917 62.5574 22.614 62.0184 23.0515C61.4793 23.4936 61.1076 24.1042 60.9642 24.7834C60.8802 25.1167 60.8382 25.3862 60.8382 25.6029V27.6223C60.8382 28.5029 61.1042 29.2473 61.6446 29.8542C62.1822 30.4598 62.8808 30.764 63.7404 30.764C64.7484 30.764 65.5352 30.3723 66.098 29.5945C66.6608 28.8126 66.9422 27.7834 66.9422 26.5042M69.6722 26.407C69.6722 28.4654 69.1164 30.0917 68.002 31.2876C67.0038 32.3487 65.762 32.8806 64.2836 32.8806C62.6876 32.8806 61.5396 32.3084 60.8396 31.1626V37.5154H58.1656V24.482C58.1656 23.1862 58.132 21.8598 58.0676 20.5001H60.4238L60.5736 22.4223H60.624C61.52 20.9751 62.8738 20.2515 64.6938 20.2515C66.1162 20.2515 67.3034 20.8167 68.254 21.9459C69.2032 23.0779 69.6792 24.564 69.6792 26.407" fill="white"/>
</g>
<mask id="mask2_18_57" style="mask-type:luminance" maskUnits="userSpaceOnUse" x="41" y="1" width="101" height="37">
<path d="M41.7296 1.12646H141.942V37.5098H41.7296" fill="white"/>
</mask>
<g mask="url(#mask2_18_57)">
<path fill-rule="evenodd" clip-rule="evenodd" d="M80.8176 26.5001C80.8176 25.3223 80.5516 24.3501 80.0196 23.5862C79.4414 22.7904 78.6658 22.3917 77.69 22.3917C77.0278 22.3917 76.43 22.614 75.8896 23.0515C75.3505 23.4933 74.9792 24.1042 74.8368 24.7834C74.7528 25.1167 74.7108 25.3862 74.7108 25.6029V27.6223C74.7108 28.5029 74.9796 29.2473 75.5158 29.8542C76.0534 30.4584 76.7534 30.764 77.6158 30.764C78.6238 30.764 79.412 30.3723 79.972 29.5945C80.532 28.8126 80.8162 27.7834 80.8162 26.5042M83.5462 26.407C83.5462 28.4654 82.9862 30.0917 81.8732 31.2876C80.8736 32.3487 79.6332 32.8806 78.1548 32.8806C76.5546 32.8806 75.4066 32.3084 74.7108 31.1626V37.5154H72.0284V24.482C72.0284 23.1862 71.9948 21.8598 71.9304 20.5001H74.2866L74.4364 22.4223H74.4868C75.38 20.9751 76.7366 20.2515 78.558 20.2515C79.979 20.2515 81.1676 20.8167 82.1196 21.9459C83.0674 23.0779 83.5462 24.564 83.5462 26.407Z" fill="white"/>
</g>
<path fill-rule="evenodd" clip-rule="evenodd" d="M99.0596 27.8946C99.0596 29.3251 98.5598 30.4862 97.5714 31.3834C96.4822 32.3598 94.9632 32.8501 93.0144 32.8501C91.2154 32.8501 89.772 32.5001 88.6828 31.8043L89.303 29.5612C90.479 30.2584 91.7726 30.6071 93.1768 30.6071C94.1876 30.6071 94.973 30.3807 95.5344 29.9237C96.0986 29.4654 96.3814 28.8571 96.3814 28.0946C96.3814 27.414 96.1476 26.8418 95.6856 26.3765C95.2208 25.9126 94.4536 25.4793 93.3784 25.0821C90.4468 23.9848 88.9824 22.3834 88.9824 20.2737C88.9824 18.8959 89.5004 17.7696 90.5322 16.8848C91.5654 16.0071 92.936 15.5654 94.6398 15.5654C96.1658 15.5654 97.4328 15.8321 98.4408 16.3626L97.7688 18.5571C96.8196 18.0404 95.75 17.7834 94.5544 17.7834C93.6066 17.7834 92.8646 18.0168 92.334 18.4821C91.8888 18.8959 91.662 19.4015 91.662 20.0029C91.662 20.6654 91.9196 21.2154 92.432 21.6459C92.88 22.0432 93.692 22.4765 94.8638 22.9404C96.3058 23.5237 97.3628 24.2043 98.0418 24.9821C98.7236 25.7626 99.0638 26.7348 99.0638 27.8946M107.945 22.5196H104.991V28.3946C104.991 29.8918 105.512 30.6376 106.555 30.6376C107.035 30.6376 107.434 30.5959 107.745 30.5126L107.821 32.5543C107.294 32.7529 106.6 32.8529 105.739 32.8529C104.679 32.8529 103.853 32.5279 103.257 31.8807C102.66 31.2307 102.361 30.1446 102.361 28.6168V22.5098H100.602V20.4959H102.362V18.2793L104.994 17.4821V20.4959H107.948V22.5182L107.945 22.5196ZM118.468 26.5154C118.468 25.4071 118.23 24.4557 117.751 23.6598C117.188 22.6987 116.383 22.2182 115.343 22.2182C114.269 22.2182 113.445 22.6987 112.886 23.6598C112.404 24.4557 112.165 25.4237 112.165 26.5654C112.165 27.6765 112.403 28.6293 112.886 29.4237C113.466 30.3848 114.272 30.8654 115.322 30.8654C116.344 30.8654 117.146 30.3751 117.73 29.3987C118.22 28.5862 118.468 27.6265 118.468 26.5154ZM121.247 26.4543C121.247 28.3154 120.715 29.8432 119.656 31.0376C118.546 32.2668 117.075 32.8807 115.238 32.8807C113.466 32.8807 112.056 32.2904 111.004 31.114C109.957 29.9334 109.431 28.4473 109.431 26.6557C109.431 24.7807 109.974 23.2432 111.055 22.0487C112.14 20.8543 113.6 20.2543 115.437 20.2543C117.206 20.2543 118.629 20.8459 119.704 22.0223C120.733 23.1668 121.244 24.6432 121.244 26.4529M129.96 22.8668C129.682 22.8157 129.398 22.7906 129.115 22.7918C128.171 22.7918 127.443 23.1501 126.931 23.8668C126.483 24.4973 126.262 25.2946 126.262 26.2557V32.6098H123.582V24.314C123.582 22.9209 123.554 21.6473 123.504 20.5029H125.837L125.935 22.8196H126.01C126.294 22.0251 126.738 21.3834 127.349 20.9029C127.907 20.4831 128.587 20.2554 129.287 20.2543C129.532 20.2543 129.755 20.2709 129.953 20.3029L129.956 22.8696L129.96 22.8668ZM139.388 25.2834C139.408 24.4848 139.231 23.7973 138.87 23.214C138.404 22.4668 137.69 22.0932 136.734 22.0932C135.856 22.0932 135.143 22.4571 134.6 23.1904C134.155 23.7709 133.889 24.4682 133.808 25.2807L139.388 25.2834ZM141.944 25.9807C141.944 26.4626 141.912 26.8696 141.846 27.2029H133.808C133.836 28.3973 134.228 29.3112 134.972 29.9418C135.65 30.5029 136.526 30.7848 137.602 30.7848C138.792 30.7848 139.878 30.5973 140.855 30.2154L141.275 32.0807C140.134 32.5807 138.783 32.8307 137.232 32.8307C135.362 32.8307 133.893 32.2779 132.825 31.1751C131.761 30.0709 131.225 28.5862 131.225 26.7279C131.225 24.9043 131.72 23.3848 132.714 22.1723C133.756 20.8779 135.164 20.2307 136.932 20.2307C138.671 20.2307 139.987 20.8779 140.88 22.1723C141.587 23.1973 141.944 24.4682 141.944 25.9779V25.9807ZM47.2666 6.36678L46.5708 4.214C46.498 3.99178 46.3636 3.47789 46.1564 2.65844H46.1312C46.0472 3.01122 45.924 3.5265 45.7392 4.214L45.0574 6.36678H47.2666ZM49.6676 9.80428H48.2676L47.4976 7.38066H44.8264L44.0956 9.80566H42.7264L45.3724 1.55566H47.0076L49.6676 9.80428ZM56.2896 3.85705L54.0426 9.80428H52.7616L50.5916 3.85705H52.0056L53.0192 7.00289C53.19 7.53066 53.3356 8.03066 53.4448 8.50705H53.4826C53.5806 8.07928 53.7262 7.5765 53.9082 7.00289L54.9064 3.85566H56.2854L56.2896 3.85705ZM60.8816 6.84316C59.42 6.84316 58.6878 7.19872 58.6878 8.04178C58.6878 8.66678 59.0658 8.97233 59.5908 8.97233C60.2628 8.97233 60.883 8.45844 60.883 7.76122V6.84455L60.8816 6.84316ZM61.0678 9.80566L60.9698 9.12094H60.932C60.5302 9.67233 59.945 9.94039 59.2002 9.94039C58.1362 9.94039 57.3802 9.19455 57.3802 8.19039C57.3802 6.72094 58.6486 5.96261 60.8438 5.96261V5.8515C60.8438 5.06816 60.4294 4.6765 59.6118 4.6765C59.0628 4.6667 58.5234 4.82055 58.0634 5.11816L57.7946 4.24872C58.3448 3.90566 59.0266 3.73483 59.833 3.73483C61.3814 3.73483 62.1626 4.55427 62.1626 6.19594V8.38483C62.1626 8.98761 62.1878 9.45427 62.2466 9.80705H61.0636L61.0678 9.80566Z" fill="white"/>
<mask id="mask3_18_57" style="mask-type:luminance" maskUnits="userSpaceOnUse" x="41" y="1" width="101" height="37">
<path d="M41.7296 1.12646H141.942V37.5098H41.7296V1.12785V1.12646Z" fill="white"/>
</mask>
<g mask="url(#mask3_18_57)">
<path fill-rule="evenodd" clip-rule="evenodd" d="M65.7844 9.80711H64.4684V3.85711H65.7844V9.80711ZM65.1012 2.87656C64.9968 2.87679 64.8934 2.8562 64.7971 2.81602C64.7008 2.77585 64.6137 2.7169 64.5408 2.64267C64.468 2.56845 64.4109 2.48046 64.373 2.38392C64.335 2.28739 64.317 2.18429 64.32 2.08072C64.32 1.63072 64.6742 1.29878 65.1264 1.29878C65.5772 1.29878 65.9426 1.63211 65.93 2.0835C65.93 2.56128 65.5898 2.87934 65.1012 2.87934V2.87656ZM69.4412 9.80711H68.1252V1.12656H69.4412V9.80711ZM74.8592 6.84322C73.3934 6.84322 72.6612 7.19878 72.6612 8.04184C72.6612 8.66684 73.0392 8.97239 73.5642 8.97239C74.232 8.97239 74.855 8.4585 74.855 7.76128V6.84461L74.8592 6.84322ZM75.0412 9.80572L74.9432 9.121H74.9068C74.5036 9.67239 73.9184 9.94045 73.1736 9.94045C72.1138 9.94045 71.3564 9.19461 71.3564 8.19045C71.3564 6.721 72.6248 5.96267 74.8214 5.96267V5.85156C74.8214 5.06822 74.4056 4.67656 73.5894 4.67656C73.0014 4.67656 72.4904 4.82378 72.041 5.11822L71.775 4.24739C72.3238 3.90711 73.007 3.7335 73.812 3.7335C75.3604 3.7335 76.143 4.55295 76.143 6.19739V8.38489C76.143 8.98628 76.1668 9.45156 76.227 9.80572H75.0412ZM81.2096 4.77378C80.4508 4.77378 79.7564 5.43489 79.7564 6.35295V7.39461C79.7564 8.21406 80.3794 8.88767 81.1844 8.88767C82.1728 8.88767 82.7594 8.07933 82.7594 6.79461C82.7594 5.59461 82.1476 4.77378 81.2082 4.77378M81.4742 9.94045C80.6342 9.94045 80.0112 9.58489 79.608 8.88767H79.5828L79.5058 9.80434H78.3858C78.4194 9.32934 78.432 8.79045 78.432 8.20295V1.12378H79.7508V4.72378H79.7746C80.1638 4.06267 80.7966 3.73211 81.6646 3.73211C83.0926 3.73211 84.0922 4.9585 84.0922 6.746C84.0922 8.59322 82.982 9.94045 81.47 9.94045M87.364 9.80711H86.048V1.12656H87.364V9.80711ZM93.3252 6.20711C93.3252 5.29045 92.8632 4.64045 92.0204 4.64045C91.2616 4.64045 90.668 5.30156 90.5784 6.20711H93.3252ZM94.5334 7.14878H90.5784C90.6064 8.27656 91.3484 8.91267 92.4446 8.91267C93.0326 8.91267 93.5674 8.81267 94.0406 8.63072L94.2464 9.54739C93.6864 9.79322 93.0284 9.91545 92.2584 9.91545C90.4062 9.91545 89.3086 8.74045 89.3086 6.91545C89.3086 5.09322 90.4314 3.721 92.1128 3.721C93.6206 3.721 94.5768 4.84878 94.5768 6.55017C94.5796 6.77934 94.567 6.98767 94.5306 7.14739L94.5334 7.14878ZM102.569 4.70017C101.617 4.70017 101.006 5.59322 101.006 6.84183C101.006 8.06406 101.631 8.9585 102.56 8.9585C103.484 8.9585 104.107 8.00295 104.107 6.81406C104.107 5.60572 103.496 4.69878 102.571 4.69878M102.518 9.94045C100.786 9.94045 99.6616 8.64322 99.6616 6.88072C99.6616 5.04461 100.81 3.7335 102.618 3.7335C104.322 3.7335 105.472 4.96961 105.472 6.78628C105.472 8.64739 104.289 9.94322 102.518 9.94322M112.556 9.8085H111.24V6.39184C111.24 5.34045 110.836 4.81267 110.043 4.81267C109.263 4.81267 108.724 5.48628 108.724 6.271V9.8085H107.408V5.5585C107.408 5.0335 107.394 4.46961 107.359 3.8585H108.518L108.58 4.77517H108.616C108.966 4.13628 109.69 3.7335 110.492 3.7335C111.738 3.7335 112.554 4.68767 112.554 6.24184V9.80572L112.556 9.8085ZM121.173 4.85017H119.724V7.73906C119.724 8.47517 119.978 8.84183 120.489 8.84183C120.722 8.84183 120.918 8.81684 121.077 8.78072L121.112 9.78489C120.856 9.88211 120.513 9.93211 120.09 9.93211C119.05 9.93211 118.431 9.35711 118.431 7.84878V4.84878H117.568V3.85711H118.431V2.76684L119.724 2.37378V3.85711H121.173V4.84739V4.85017ZM128.149 9.8085H126.83V6.41961C126.83 5.35295 126.427 4.81406 125.634 4.81406C124.951 4.81406 124.318 5.27934 124.318 6.22239V9.81128H123V1.12656H124.318V4.70017H124.346C124.758 4.05156 125.354 3.7335 126.124 3.7335C127.382 3.7335 128.149 4.71545 128.149 6.26961V9.8085ZM133.672 6.21128C133.672 5.29461 133.21 4.64183 132.367 4.64183C131.611 4.64183 131.016 5.30434 130.929 6.21128H133.673H133.672ZM134.88 7.15156H130.926C130.952 8.27933 131.694 8.91545 132.791 8.91545C133.379 8.91545 133.914 8.81545 134.387 8.6335L134.594 9.55017C134.034 9.796 133.376 9.91822 132.606 9.91822C130.751 9.91822 129.655 8.74322 129.655 6.91822C129.655 5.096 130.775 3.72378 132.459 3.72378C133.971 3.72378 134.923 4.85156 134.923 6.55295C134.929 6.78211 134.916 6.99045 134.881 7.15017L134.88 7.15156Z" fill="white"/>
</g>
</g>
<defs>
<filter id="filter0_d_18_57" x="0.941772" y="0.925049" width="34.1617" height="38.5959" filterUnits="userSpaceOnUse" color-interpolation-filters="sRGB">
<feFlood flood-opacity="0" result="BackgroundImageFix"/>
<feColorMatrix in="SourceAlpha" type="matrix" values="0 0 0 0 0 0 0 0 0 0 0 0 0 0 0 0 0 0 127 0" result="hardAlpha"/>
<feOffset dy="4"/>
<feGaussianBlur stdDeviation="2"/>
<feComposite in2="hardAlpha" operator="out"/>
<feColorMatrix type="matrix" values="0 0 0 0 0 0 0 0 0 0 0 0 0 0 0 0 0 0 0.25 0"/>
<feBlend mode="normal" in2="BackgroundImageFix" result="effect1_dropShadow_18_57"/>
<feBlend mode="normal" in="SourceGraphic" in2="effect1_dropShadow_18_57" result="shape"/>
</filter>
<filter id="filter1_d_18_57" x="37.7296" y="1.12646" width="108.215" height="44.3833" filterUnits="userSpaceOnUse" color-interpolation-filters="sRGB">
<feFlood flood-opacity="0" result="BackgroundImageFix"/>
<feColorMatrix in="SourceAlpha" type="matrix" values="0 0 0 0 0 0 0 0 0 0 0 0 0 0 0 0 0 0 127 0" result="hardAlpha"/>
<feOffset dy="4"/>
<feGaussianBlur stdDeviation="2"/>
<feComposite in2="hardAlpha" operator="out"/>
<feColorMatrix type="matrix" values="0 0 0 0 0 0 0 0 0 0 0 0 0 0 0 0 0 0 0.25 0"/>
<feBlend mode="normal" in2="BackgroundImageFix" result="effect1_dropShadow_18_57"/>
<feBlend mode="normal" in="SourceGraphic" in2="effect1_dropShadow_18_57" result="shape"/>
</filter>
</defs>
</svg>
